<?xml version="1.0" standalone="no"?>
<!DOCTYPE svg PUBLIC "-//W3C//DTD SVG 20010904//EN"
 "http://www.w3.org/TR/2001/REC-SVG-20010904/DTD/svg10.dtd">
<svg version="1.0" xmlns="http://www.w3.org/2000/svg"
 width="424.000000pt" height="292.000000pt" viewBox="0 0 424.000000 292.000000"
 preserveAspectRatio="xMidYMid meet">

<g transform="translate(0.000000,292.000000) scale(0.100000,-0.100000)"
fill="#000000" stroke="none">
<path d="M271 2107 c-74 -26 -95 -110 -57 -222 27 -77 109 -243 152 -307 234
-346 617 -550 1029 -549 72 0 150 4 175 10 82 19 80 20 80 -66 1 -226 67 -371
218 -475 172 -118 418 -92 572 62 99 99 140 217 140 398 l0 94 38 -7 c20 -4
79 -10 130 -14 508 -37 984 241 1208 707 49 102 84 208 84 255 0 106 -132 164
-203 89 -14 -15 -41 -71 -60 -124 -115 -323 -363 -556 -685 -646 -85 -23 -115
-27 -242 -27 -158 1 -258 20 -362 69 -88 42 -111 66 -111 114 0 23 9 55 20 74
11 18 39 64 63 102 43 71 110 226 131 307 11 41 10 50 -9 91 -24 49 -48 66
-101 72 -54 6 -90 -10 -140 -62 -62 -65 -129 -86 -249 -80 -103 5 -147 24
-213 93 -38 39 -52 47 -89 50 -89 6 -150 -42 -150 -121 0 -81 75 -264 163
-398 42 -64 52 -88 52 -121 0 -54 -12 -67 -106 -114 -120 -60 -242 -85 -392
-79 -257 11 -475 106 -656 286 -112 111 -201 252 -246 392 -24 74 -50 123 -72
136 -32 19 -76 24 -112 11z m1759 -1056 c0 -125 2 -141 21 -165 16 -21 29 -26
64 -26 36 0 48 5 69 31 25 30 26 35 26 169 l0 139 90 -44 c105 -53 104 -51 98
-227 -3 -102 -6 -118 -33 -167 -54 -98 -142 -151 -250 -151 -131 0 -235 84
-270 217 -16 59 -19 180 -7 246 7 35 12 40 92 80 47 23 88 41 93 39 4 -2 7
-65 7 -141z"/>
</g>
</svg>
