<?xml version="1.0" standalone="no"?>
<!DOCTYPE svg PUBLIC "-//W3C//DTD SVG 20010904//EN"
 "http://www.w3.org/TR/2001/REC-SVG-20010904/DTD/svg10.dtd">
<svg version="1.0" xmlns="http://www.w3.org/2000/svg"
 width="300.000000pt" height="300.000000pt" viewBox="0 0 300.000000 300.000000"
 preserveAspectRatio="xMidYMid meet">

<g transform="translate(0.000000,300.000000) scale(0.100000,-0.100000)"
fill="#000000" stroke="none">
<path d="M180 2240 c0 -539 0 -538 59 -573 23 -14 54 -17 155 -17 l126 0 0
125 0 125 149 0 c81 0 172 4 201 10 76 14 162 56 203 98 121 124 141 419 39
570 -35 53 -95 97 -169 124 -55 21 -78 22 -410 26 l-353 3 0 -491z m577 234
c50 -37 66 -77 66 -164 0 -150 -54 -200 -215 -200 l-88 0 0 196 0 196 104 -4
c87 -2 109 -6 133 -24z"/>
<path d="M2290 2655 l0 -75 -55 0 -55 0 0 -120 0 -120 55 0 55 0 0 -198 c0
-224 9 -273 63 -344 79 -104 160 -138 345 -145 l122 -5 0 136 c0 128 -1 137
-18 132 -37 -12 -113 11 -146 43 l-31 31 -3 175 -4 175 101 0 101 0 0 120 0
120 -101 0 -102 0 6 75 7 75 -170 0 -170 0 0 -75z"/>
<path d="M1522 2574 c-72 -19 -107 -39 -165 -92 -89 -84 -127 -192 -127 -361
0 -229 68 -359 228 -434 66 -32 69 -32 222 -32 155 0 155 0 222 33 78 38 149
111 185 189 25 54 51 159 42 168 -3 3 -72 2 -152 -1 l-146 -7 -12 -29 c-30
-74 -157 -105 -229 -55 -38 26 -70 80 -70 119 l0 28 289 0 c340 0 327 -4 318
95 -16 175 -140 332 -296 379 -68 20 -235 20 -309 0z m225 -290 c41 -20 81
-69 89 -112 l7 -32 -162 0 c-175 0 -172 -1 -150 57 32 86 132 126 216 87z"/>
<path d="M2526 1438 l6 -103 -21 33 c-26 40 -91 71 -149 72 -79 0 -156 -58
-183 -137 -20 -59 -17 -209 4 -265 59 -152 253 -169 325 -28 l22 44 0 -72 0
-72 65 0 c69 0 118 17 129 45 3 9 6 145 6 301 l0 284 -105 0 -105 0 6 -102z
m-57 -164 c28 -23 31 -31 31 -85 0 -50 -4 -64 -25 -84 -60 -61 -145 -10 -145
87 0 41 5 54 29 79 36 36 70 37 110 3z"/>
<path d="M180 1030 l0 -460 130 0 130 0 0 345 c0 279 3 345 13 345 9 0 34 -96
81 -322 37 -178 70 -333 73 -345 5 -23 8 -23 159 -23 85 0 154 3 154 7 0 3 32
156 70 338 39 182 70 335 70 338 0 4 7 7 15 7 13 0 15 -45 15 -345 l0 -345
130 0 130 0 0 460 0 460 -225 0 -225 0 -5 -22 c-5 -22 -115 -619 -115 -625 0
-2 -6 -3 -14 -3 -16 0 -16 -1 -76 325 -22 121 -45 244 -51 273 l-10 52 -225 0
-224 0 0 -460z"/>
<path d="M1660 1447 c-59 -32 -82 -52 -108 -96 -23 -39 -27 -59 -30 -144 -6
-144 29 -221 122 -269 50 -26 171 -35 234 -19 75 21 148 103 167 189 l7 32
-91 0 c-79 0 -90 -2 -96 -19 -3 -11 -21 -27 -41 -36 -29 -13 -41 -14 -69 -5
-39 13 -65 44 -65 77 l0 23 175 0 c201 0 195 -3 176 85 -14 61 -53 120 -107
161 -35 27 -44 29 -143 32 -75 2 -113 -1 -131 -11z m193 -188 c48 -52 39 -59
-68 -59 -80 0 -95 3 -95 16 0 45 61 89 110 78 14 -2 37 -18 53 -35z"/>
<path d="M1488 839 c-26 -15 -22 -48 14 -120 43 -85 120 -162 205 -202 61 -28
80 -32 176 -35 l107 -4 0 -53 c0 -89 66 -155 155 -155 87 0 149 60 160 154 l7
54 102 4 c88 3 110 8 169 35 87 41 167 121 207 205 35 74 38 103 10 118 -30
16 -53 -2 -73 -59 -23 -67 -103 -153 -173 -187 -73 -36 -179 -44 -253 -19 -75
24 -78 38 -31 129 44 86 50 120 21 136 -28 14 -38 13 -59 -10 -41 -44 -133
-44 -173 -1 -22 24 -32 25 -60 11 -29 -16 -23 -50 23 -140 l42 -82 -25 -18
c-65 -50 -208 -52 -303 -6 -68 33 -148 119 -172 183 -15 43 -38 74 -53 73 -3
0 -14 -5 -23 -11z m632 -364 c0 -52 1 -55 25 -55 24 0 25 3 25 55 0 60 5 63
50 40 25 -13 30 -22 30 -54 0 -86 -37 -131 -108 -131 -61 0 -102 50 -102 123
0 37 7 49 35 65 38 22 45 15 45 -43z"/>
</g>
</svg>
